<?xml version="1.0" encoding="UTF-8" standalone="no"?>
<!-- Created with Inkscape (http://www.inkscape.org/) -->

<svg
   xmlns:dc="http://purl.org/dc/elements/1.1/"
   xmlns:cc="http://creativecommons.org/ns#"
   xmlns:rdf="http://www.w3.org/1999/02/22-rdf-syntax-ns#"
   xmlns:svg="http://www.w3.org/2000/svg"
   xmlns="http://www.w3.org/2000/svg"
   xmlns:sodipodi="http://sodipodi.sourceforge.net/DTD/sodipodi-0.dtd"
   xmlns:inkscape="http://www.inkscape.org/namespaces/inkscape"
   width="100mm"
   height="100mm"
   viewBox="0 0 100 100"
   version="1.1"
   id="svg8"
   inkscape:version="0.92.1 r15371"
   sodipodi:docname="logo_anderer-text.svg"
   inkscape:export-filename="/home/gratach/Dokumente/cokurs/git/www/favicon.png"
   inkscape:export-xdpi="76.199997"
   inkscape:export-ydpi="76.199997">
  <defs
     id="defs2" />
  <sodipodi:namedview
     id="base"
     pagecolor="#ffffff"
     bordercolor="#666666"
     borderopacity="1.0"
     inkscape:pageopacity="0.0"
     inkscape:pageshadow="2"
     inkscape:zoom="2"
     inkscape:cx="132.23486"
     inkscape:cy="213.13518"
     inkscape:document-units="mm"
     inkscape:current-layer="layer1"
     showgrid="false"
     inkscape:window-width="1920"
     inkscape:window-height="1016"
     inkscape:window-x="0"
     inkscape:window-y="27"
     inkscape:window-maximized="1" />
  <metadata
     id="metadata5">
    <rdf:RDF>
      <cc:Work
         rdf:about="">
        <dc:format>image/svg+xml</dc:format>
        <dc:type
           rdf:resource="http://purl.org/dc/dcmitype/StillImage" />
        <dc:title></dc:title>
      </cc:Work>
    </rdf:RDF>
  </metadata>
  <g
     inkscape:groupmode="layer"
     id="layer2"
     inkscape:label="hintergrund">
    <rect
       style="fill:#ffcc00;stroke-width:0.26458332"
       id="rect10292"
       width="92.496628"
       height="92.496643"
       x="4.1907859"
       y="3.9112611"
       ry="0.29934186" />
  </g>
  <g
     inkscape:label="Ebene 1"
     inkscape:groupmode="layer"
     id="layer1"
     transform="translate(0,-197)">
    <path
       style="fill:#c8b7b7;stroke:#000000;stroke-width:2;stroke-linecap:round;stroke-linejoin:round;stroke-opacity:1;stroke-miterlimit:4;stroke-dasharray:none"
       d="m 15.234364,228.84627 -7.4835495,-2.13815 44.9012815,-28.59784 6.949009,1.87088"
       id="path61"
       inkscape:connector-curvature="0"
       sodipodi:nodetypes="cccc" />
    <path
       style="fill:#e3dbdb;stroke:#000000;stroke-width:2;stroke-linecap:round;stroke-linejoin:round;stroke-opacity:1;stroke-miterlimit:4;stroke-dasharray:none"
       d="m 59.333836,268.9367 v 0 0 5.34539 l -24.856067,17.37252 -0.53454,-5.34539"
       id="path67"
       inkscape:connector-curvature="0" />
    <path
       style="fill:#c8b7b7;stroke:#000000;stroke-width:2;stroke-linecap:round;stroke-linejoin:round;stroke-opacity:1;stroke-miterlimit:4;stroke-dasharray:none"
       d="m 47.039437,265.99673 12.294399,2.93997 -25.390607,17.37252 -10.958051,-4.2763"
       id="path65"
       inkscape:connector-curvature="0"
       sodipodi:nodetypes="cccc" />
    <path
       style="fill:#ffffff;stroke:#000000;stroke-width:2;stroke-linecap:round;stroke-linejoin:round;stroke-opacity:1;stroke-miterlimit:4;stroke-dasharray:none"
       d="m 18.174328,285.24014 16.303441,6.41447 -0.53454,-5.34539 -10.958051,-4.2763"
       id="path84"
       inkscape:connector-curvature="0"
       sodipodi:nodetypes="cccc" />
    <path
       style="fill:#e3dbdb;stroke:#000000;stroke-width:2;stroke-linecap:round;stroke-linejoin:round;stroke-opacity:1;stroke-miterlimit:4;stroke-dasharray:none"
       d="m 15.234364,228.84627 44.366741,-28.86511 -1.069078,57.99749 -44.901281,30.46873 z"
       id="path59"
       inkscape:connector-curvature="0" />
    <path
       style="fill:#ffffff;stroke:#000000;stroke-width:2;stroke-linecap:round;stroke-linejoin:round;stroke-opacity:1;stroke-miterlimit:4;stroke-dasharray:none"
       d="m 13.630746,288.44738 -6.1471994,-2.13816 0.2672678,-59.6011 7.4835496,2.13815 z"
       id="path80"
       inkscape:connector-curvature="0" />
    <path
       style="fill:#00ffff;stroke:#000000;stroke-width:2;stroke-linecap:butt;stroke-linejoin:miter;stroke-opacity:1;stroke-miterlimit:4;stroke-dasharray:none"
       d="m 20.024543,231.94333 -1.336347,46.5049 35.012307,-24.05425 1.069078,-45.70309 z"
       id="path71"
       inkscape:connector-curvature="0"
       sodipodi:nodetypes="ccccc" />
    <text
       xml:space="preserve"
       style="font-style:normal;font-weight:normal;font-size:9.78356552px;line-height:1.25;font-family:sans-serif;letter-spacing:0px;word-spacing:0px;fill:#000000;fill-opacity:1;stroke:none;stroke-width:0.24458915"
       x="39.454346"
       y="215.8204"
       id="text106"
       transform="matrix(0.82298023,-0.65140942,-0.04074021,1.2473429,0,0)"><tspan
         sodipodi:role="line"
         id="tspan104"
         x="39.454346"
         y="215.8204"
         style="stroke-width:0.24458915">Cokurs</tspan></text>
    <path
       style="fill:#ff2a2a;stroke-width:0.50507629"
       d="m 114.03536,151.79952 c -1.21935,-2.35796 -0.74681,-12.09877 0.79926,-16.47589 1.98857,-5.62987 6.27461,-10.62321 9.31732,-10.85489 1.02049,-0.0777 1.69594,0.28158 2.48409,1.32133 0.94832,1.25105 1.07847,2.06489 1.05007,6.56599 -0.0511,8.10349 -2.69173,15.0957 -7.19922,19.06336 -2.97302,2.61695 -5.22615,2.7497 -6.45152,0.3801 z m 7.09233,-4.09659 c 2.5365,-2.64724 3.80176,-6.20378 4.17093,-11.72416 0.31679,-4.73724 -0.60526,-7.82868 -2.33498,-7.82868 -1.56781,0 -4.34575,2.7541 -5.51169,5.4644 -2.82925,6.57677 -2.3718,16.25388 0.76834,16.25388 0.4579,0 1.76623,-0.97445 2.9074,-2.16544 z"
       id="path10190"
       inkscape:connector-curvature="0"
       transform="matrix(0.26458333,0,0,0.26458333,0,197)" />
    <path
       style="fill:#ff0000;stroke-width:0.50507629"
       d="m 94.49648,167.92484 c -3.409165,-2.5694 -3.19979,-15.36776 0.396375,-24.22903 2.47584,-6.10068 7.095855,-11.7528 11.107385,-13.58876 3.22863,-1.47764 3.78807,-1.29848 3.78807,1.21311 v 2.15992 l -1.89403,-0.17455 c -4.1697,-0.38428 -9.190382,4.95416 -11.581325,12.3143 -1.045424,3.21817 -1.310393,5.07745 -1.361247,9.55184 -0.0902,7.93652 1.108522,10.11009 5.032575,9.12522 1.770067,-0.44426 5.803377,-4.56675 7.737817,-7.9089 l 1.58102,-2.73155 -0.33814,2.27284 c -0.52021,3.4966 -4.86221,9.16067 -8.91833,11.63381 -1.850504,1.12831 -4.319551,1.28924 -5.55017,0.36175 z"
       id="path10188"
       inkscape:connector-curvature="0"
       transform="matrix(0.26458333,0,0,0.26458333,0,197)" />
    <text
       xml:space="preserve"
       style="font-style:normal;font-weight:normal;font-size:2.38278127px;line-height:1.25;font-family:sans-serif;letter-spacing:0px;word-spacing:0px;fill:#000000;fill-opacity:1;stroke:none;stroke-width:0.19856511"
       x="37.471012"
       y="237.49683"
       id="text10315"
       transform="matrix(0.89011471,-0.67677577,-0.05193642,1.1629392,0,0)"
       inkscape:transform-center-x="-103.92459"
       inkscape:transform-center-y="0.29315522"><tspan
         sodipodi:role="line"
         x="37.471012"
         y="237.49683"
         style="font-size:2.38278127px;stroke-width:0.19856511"
         id="tspan10317">Willkommen im Computerkurs.</tspan><tspan
         sodipodi:role="line"
         x="37.471012"
         y="240.4753"
         style="font-size:2.38278127px;stroke-width:0.19856511"
         id="tspan10325">Dieser Text ist Teil des Icons</tspan><tspan
         sodipodi:role="line"
         x="37.471012"
         y="243.45378"
         style="font-size:2.38278127px;stroke-width:0.19856511"
         id="tspan10331">der Website cokurs.de. Die</tspan><tspan
         sodipodi:role="line"
         x="37.471012"
         y="246.43225"
         style="font-size:2.38278127px;stroke-width:0.19856511"
         id="tspan10333">Auflösung ist so schlecht, dass</tspan><tspan
         sodipodi:role="line"
         x="37.471012"
         y="249.41074"
         style="font-size:2.38278127px;stroke-width:0.19856511"
         id="tspan10335">man ihn kaum lesen kann. Du</tspan><tspan
         sodipodi:role="line"
         x="37.471012"
         y="252.38921"
         style="font-size:2.38278127px;stroke-width:0.19856511"
         id="tspan10337">hast es trotzdem geschafft.</tspan><tspan
         sodipodi:role="line"
         x="37.471012"
         y="255.36769"
         style="font-size:2.38278127px;stroke-width:0.19856511"
         id="tspan10339">Herzlichen Glückwunsch!</tspan></text>
  </g>
</svg>
