<?xml version="1.0" encoding="UTF-8" standalone="no"?>
<svg
   width="900"
   height="900"
   version="1.1"
   id="svg20"
   sodipodi:docname="musikicon.svg"
   inkscape:version="1.2.2 (b0a8486541, 2022-12-01)"
   xmlns:inkscape="http://www.inkscape.org/namespaces/inkscape"
   xmlns:sodipodi="http://sodipodi.sourceforge.net/DTD/sodipodi-0.dtd"
   xmlns:xlink="http://www.w3.org/1999/xlink"
   xmlns="http://www.w3.org/2000/svg"
   xmlns:svg="http://www.w3.org/2000/svg">
  <sodipodi:namedview
     id="namedview22"
     pagecolor="#ffffff"
     bordercolor="#000000"
     borderopacity="0.25"
     inkscape:showpageshadow="2"
     inkscape:pageopacity="0.0"
     inkscape:pagecheckerboard="0"
     inkscape:deskcolor="#d1d1d1"
     showgrid="false"
     inkscape:zoom="0.99666667"
     inkscape:cx="439.46488"
     inkscape:cy="451.00334"
     inkscape:window-width="1920"
     inkscape:window-height="1080"
     inkscape:window-x="0"
     inkscape:window-y="1080"
     inkscape:window-maximized="1"
     inkscape:current-layer="g18" />
  <!-- Created with SVG-edit - https://github.com/SVG-Edit/svgedit-->
  <defs
     id="defs12">
    <linearGradient
       id="svg_4"
       x1="459.81274"
       y1="431.42617"
       gradientTransform="matrix(0.31148647,0.04606347,-0.06521569,0.56955498,35.941181,-85.895911)"
       x2="837.81051"
       y2="212.89621"
       gradientUnits="userSpaceOnUse">
      <stop
         offset="0"
         stop-color="#000000"
         id="stop2" />
      <stop
         offset="1"
         stop-color="#0b0b5b"
         stop-opacity="0.996094"
         id="stop4" />
    </linearGradient>
    <linearGradient
       id="svg_6"
       x1="0"
       x2="1"
       y1="0"
       y2="0.808594">
      <stop
         offset="0"
         stop-color="#dd3000"
         stop-opacity="0.992188"
         id="stop7" />
      <stop
         offset="1"
         stop-color="#ffc700"
         stop-opacity="0.996094"
         id="stop9" />
    </linearGradient>
    <linearGradient
       inkscape:collect="always"
       xlink:href="#svg_4"
       id="linearGradient358"
       gradientUnits="userSpaceOnUse"
       gradientTransform="matrix(0.31148647,0.04606347,-0.06521569,0.56955498,324.00317,-5.430938)"
       x1="459.81274"
       y1="431.42617"
       x2="837.81051"
       y2="212.89621" />
    <linearGradient
       inkscape:collect="always"
       xlink:href="#svg_4"
       id="linearGradient379"
       gradientUnits="userSpaceOnUse"
       gradientTransform="matrix(0.31148647,0.04606347,-0.06521569,0.56955498,613.78257,-102.19624)"
       x1="459.81274"
       y1="431.42617"
       x2="837.81051"
       y2="212.89621" />
    <linearGradient
       inkscape:collect="always"
       xlink:href="#svg_4"
       id="linearGradient400"
       gradientUnits="userSpaceOnUse"
       gradientTransform="matrix(0.31148647,0.04606347,-0.06521569,0.56955498,133.36263,475.63575)"
       x1="459.81274"
       y1="431.42617"
       x2="837.81051"
       y2="212.89621" />
    <linearGradient
       inkscape:collect="always"
       xlink:href="#svg_4"
       id="linearGradient421"
       gradientUnits="userSpaceOnUse"
       gradientTransform="matrix(0.31148647,0.04606347,-0.06521569,0.56955498,529.94838,421.82357)"
       x1="459.81274"
       y1="431.42617"
       x2="837.81051"
       y2="212.89621" />
    <linearGradient
       inkscape:collect="always"
       xlink:href="#svg_4"
       id="linearGradient424"
       gradientUnits="userSpaceOnUse"
       gradientTransform="matrix(0.31148647,0.04606347,-0.06521569,0.56955498,25.368157,-95.315616)"
       x1="459.81274"
       y1="431.42617"
       x2="837.81051"
       y2="212.89621" />
  </defs>
  <g
     class="layer"
     id="g18">
    <title
       id="title14">Layer 1</title>
    <rect
       fill="url(#svg_6)"
       height="905.419174"
       id="svg_3"
       stroke="#56ff56"
       stroke-dasharray="null"
       stroke-linecap="null"
       stroke-linejoin="null"
       stroke-width="0"
       width="917.984863"
       x="-5.484886"
       y="-4.919195" />
    <path
       d="m 153.45023,58.118103 c 11.27059,-6.448372 26.69937,-8.061973 44.03286,-4.524837 17.3335,3.537136 54.18815,27.814349 70.93058,46.195869 -39.40054,-21.40766 -38.36674,-18.33334 -53.18255,-23.28348 -14.8158,-4.95014 -30.6205,-12.156443 -47.34522,-1.64557 5.34548,23.51279 35.98564,160.157835 40.01955,174.550045 -2.05197,11.86921 -22.28327,21.53691 -33.14869,19.6055 -10.86541,-1.93141 -26.59702,-9.77611 -29.51568,-20.59506 -2.91866,-10.81896 11.39281,-26.88037 22.93281,-28.41985 11.54,-1.53947 19.11498,2.50218 26.27122,7.78031 C 189.89429,211.85165 158.57954,78.677495 153.45023,58.118103 Z"
       fill="url(#svg_4)"
       id="svg_2"
       stroke="#56ff56"
       stroke-dasharray="none"
       stroke-linecap="null"
       stroke-linejoin="null"
       stroke-width="0"
       style="fill:url(#linearGradient424)" />
    <path
       d="m 452.08525,148.00278 c 11.27059,-6.44837 26.69937,-8.06198 44.03286,-4.52484 17.3335,3.53714 54.18815,27.81435 70.93058,46.19587 -39.40054,-21.40766 -38.36674,-18.33334 -53.18255,-23.28348 -14.8158,-4.95014 -30.6205,-12.15644 -47.34522,-1.64557 5.34548,23.51279 35.98564,160.15783 40.01955,174.55004 -2.05197,11.86921 -22.28327,21.53691 -33.14869,19.6055 -10.86541,-1.93141 -26.59702,-9.77611 -29.51568,-20.59506 -2.91866,-10.81896 11.39281,-26.88037 22.93281,-28.41985 11.54,-1.53947 19.11498,2.50218 26.27122,7.78031 -4.55082,-15.92938 -35.86557,-149.10353 -40.99488,-169.66292 z"
       fill="url(#svg_4)"
       id="svg_2-7"
       stroke="#56ff56"
       stroke-dasharray="none"
       stroke-linecap="null"
       stroke-linejoin="null"
       stroke-width="0"
       style="fill:url(#linearGradient358)" />
    <path
       d="m 741.86465,51.237492 c 11.27059,-6.44838 26.69937,-8.06198 44.03286,-4.52484 17.3335,3.53714 54.18815,27.81435 70.93058,46.19587 -39.40054,-21.40766 -38.36674,-18.33334 -53.18255,-23.28348 -14.8158,-4.95014 -30.6205,-12.15644 -47.34522,-1.64557 5.34548,23.51279 35.98564,160.157828 40.01955,174.550038 -2.05197,11.86921 -22.28327,21.53691 -33.14869,19.6055 -10.86541,-1.93141 -26.59702,-9.77611 -29.51568,-20.59506 -2.91866,-10.81896 11.39281,-26.88037 22.93281,-28.41985 11.54,-1.53947 19.11498,2.50218 26.27122,7.78031 C 778.30871,204.97103 746.99396,71.796882 741.86465,51.237492 Z"
       fill="url(#svg_4)"
       id="svg_2-5"
       stroke="#56ff56"
       stroke-dasharray="none"
       stroke-linecap="null"
       stroke-linejoin="null"
       stroke-width="0"
       style="fill:url(#linearGradient379)" />
    <path
       d="m 261.44471,629.06947 c 11.27059,-6.44837 26.69937,-8.06198 44.03286,-4.52484 17.3335,3.53714 54.18815,27.81435 70.93058,46.19587 -39.40054,-21.40766 -38.36674,-18.33334 -53.18255,-23.28348 -14.8158,-4.95014 -30.6205,-12.15644 -47.34522,-1.64557 5.34548,23.51279 35.98564,160.15783 40.01955,174.55004 -2.05197,11.86921 -22.28327,21.53691 -33.14869,19.6055 -10.86541,-1.93141 -26.59702,-9.77611 -29.51568,-20.59506 -2.91866,-10.81896 11.39281,-26.88037 22.93281,-28.41985 11.54,-1.53947 19.11498,2.50218 26.27122,7.78031 -4.55082,-15.92938 -35.86557,-149.10353 -40.99488,-169.66292 z"
       fill="url(#svg_4)"
       id="svg_2-9"
       stroke="#56ff56"
       stroke-dasharray="none"
       stroke-linecap="null"
       stroke-linejoin="null"
       stroke-width="0"
       style="fill:url(#linearGradient400)" />
    <path
       d="m 658.03046,575.25729 c 11.27059,-6.44837 26.69937,-8.06197 44.03286,-4.52484 17.3335,3.53714 54.18815,27.81435 70.93058,46.19587 -39.40054,-21.40766 -38.36674,-18.33334 -53.18255,-23.28348 -14.8158,-4.95014 -30.6205,-12.15644 -47.34522,-1.64557 5.34548,23.51279 35.98564,160.15783 40.01955,174.55004 -2.05197,11.86921 -22.28327,21.53691 -33.14869,19.6055 -10.86541,-1.93141 -26.59702,-9.77611 -29.51568,-20.59506 -2.91866,-10.81896 11.39281,-26.88037 22.93281,-28.41985 11.54,-1.53947 19.11498,2.50218 26.27122,7.78031 -4.55082,-15.92938 -35.86557,-149.10353 -40.99488,-169.66292 z"
       fill="url(#svg_4)"
       id="svg_2-70"
       stroke="#56ff56"
       stroke-dasharray="none"
       stroke-linecap="null"
       stroke-linejoin="null"
       stroke-width="0"
       style="fill:url(#linearGradient421)" />
  </g>
</svg>
